Patient4_TMGait_0pt4_01_left_34_GRF.mot
version=1
nRows=78
nColumns=19
inDegrees=no
endheader
time	F1x	F1y	F1z	M1x	M1y	M1z	F2x	F2y	F2z	M2x	M2y	M2z	EC1x	EC1y	EC1z	EC2x	EC2y	EC2z
42.16	1.7098	10.1109	2.8606	-2.1927	-4.233	7.1516	-9.5078	705.975	-58.1421	244.9424	62.2333	728.1559	-0.0592	0.0182	-0.0073	-0.0462	0.0165	0.9585
42.1731	1.1014	7.2232	1.9878	-1.6775	-2.9532	5.2693	-6.185	710.4065	-57.6786	246.6822	61.0685	732.4609	-0.0592	0.0182	-0.0073	-0.0462	0.0165	0.9585
42.1861	0.56595	4.8308	1.2483	-1.2512	-1.8714	3.7441	-3.1367	718.2311	-57.1123	249.5445	59.8512	739.721	-0.0592	0.0182	-0.0073	-0.0462	0.0165	0.9585
42.1992	0.13452	3.0559	0.68401	-0.93828	-1.0495	2.6554	-0.54976	729.5469	-56.5222	253.57	58.701	750.0398	-0.0592	0.0182	-0.0073	-0.0462	0.0165	0.9585
42.2123	-0.17533	1.8586	0.29675	-0.73124	-0.48206	1.9485	1.5233	743.7957	-55.9796	258.5824	57.6979	762.9279	-0.0592	0.0182	-0.0073	-0.0462	0.0165	0.9585
42.2254	-0.38772	1.1478	0.063061	-0.61168	-0.13719	1.5536	3.1241	759.8558	-55.5366	264.2084	56.8789	777.353	-0.0592	0.0182	-0.0073	-0.0462	0.0165	0.9585
42.2384	-0.52444	0.79673	-0.051686	-0.55409	0.032069	1.3712	4.3201	776.2101	-55.2041	269.9279	56.2358	791.8903	-0.0592	0.0182	-0.0073	-0.0462	0.0165	0.9585
42.2515	-0.61645	0.65224	-0.077964	-0.52374	0.06534	1.2917	5.1544	791.183	-54.9572	275.153	55.7328	804.9669	-0.0592	0.0182	-0.0073	-0.0462	0.0165	0.9585
42.2646	-0.70182	0.57825	-0.057538	-0.48605	0.008508	1.2078	5.6521	803.153	-54.7672	279.3071	55.3364	815.0483	-0.0592	0.0182	-0.0073	-0.0462	0.0165	0.9585
42.2776	-0.79453	0.44645	-0.0032378	-0.40469	-0.11285	1.0023	5.8077	810.8277	-54.597	281.9279	55.0199	820.9193	-0.0592	0.0182	-0.0073	-0.0462	0.0165	0.9585
42.2907	-0.9109	0.14703	0.059925	-0.24728	-0.26211	0.58084	5.6478	813.5094	-54.3978	282.7641	54.7368	821.9381	-0.0592	0.0182	-0.0073	-0.0462	0.0165	0.9585
42.3038	-1.0413	-0.41496	0.132	0.015128	-0.42421	-0.15019	5.2347	811.199	-54.1289	281.8087	54.4373	818.1377	-0.0592	0.0182	-0.0073	-0.0462	0.0165	0.9585
42.3169	-1.1653	-1.2885	0.19462	0.39572	-0.5661	-1.2372	4.6705	804.4845	-53.8121	279.2613	54.1167	810.091	-0.0592	0.0182	-0.0073	-0.0462	0.0165	0.9585
42.3299	-1.2351	-2.4803	0.24341	0.89038	-0.65725	-2.681	4.1138	794.3986	-53.5226	275.483	53.8055	798.7677	-0.0592	0.0182	-0.0073	-0.0462	0.0165	0.9585
42.343	-1.1666	-3.8924	0.25218	1.4579	-0.63881	-4.3664	3.7577	782.3011	-53.3613	270.9572	53.5463	785.4433	-0.0592	0.0182	-0.0073	-0.0462	0.0165	0.9585
42.3561	-0.86338	-5.2817	0.19196	2.0055	-0.44519	-6.0135	3.8007	769.6609	-53.4006	266.2148	53.354	771.479	-0.0592	0.0182	-0.0073	-0.0462	0.0165	0.9585
42.3691	-0.18344	-6.2194	0.021543	2.3687	0.017363	-7.1449	4.3784	757.8456	-53.6856	261.7527	53.2315	758.158	-0.0592	0.0182	-0.0073	-0.0462	0.0165	0.9585
42.3822	1.0038	-6.0315	-0.29591	2.2871	0.84525	-6.9909	5.5659	747.9023	-54.2269	257.9534	53.1632	746.4763	-0.0592	0.0182	-0.0073	-0.0462	0.0165	0.9585
42.3953	2.8375	-3.7761	-0.80103	1.392	2.1358	-4.4862	7.3415	740.4024	-55.0144	255.0265	53.1378	737.0006	-0.0592	0.0182	-0.0073	-0.0462	0.0165	0.9585
42.4084	5.3901	1.7429	-1.5245	-0.78573	3.9481	1.7313	9.6129	735.3685	-56.0049	252.9825	53.1353	729.7956	-0.0592	0.0182	-0.0073	-0.0462	0.0165	0.9585
42.4214	8.6213	11.8766	-2.4694	-4.7795	6.2595	13.2188	12.2398	732.2595	-57.1192	251.6298	53.1227	724.4011	-0.0592	0.0182	-0.0073	-0.0462	0.0165	0.9585
42.4345	12.2744	27.9322	-3.5821	-11.1035	8.8955	31.4938	15.0136	730.0392	-58.2226	250.6029	53.0352	719.8984	-0.0592	0.0182	-0.0073	-0.0462	0.0165	0.9585
42.4476	15.7625	50.8019	-4.7178	-20.1052	11.4515	57.619	17.7165	727.3355	-59.1384	249.4226	52.774	715.0479	-0.0592	0.0182	-0.0073	-0.0462	0.0165	0.9585
42.4606	18.1616	80.465	-5.637	-31.7695	13.283	91.6302	20.1153	722.663	-59.6581	247.5732	52.2202	708.5135	-0.0592	0.0182	-0.0073	-0.0462	0.0165	0.9585
42.4737	18.3155	115.4031	-6.0083	-45.488	13.5545	131.8756	22.0089	714.6158	-59.5775	244.5747	51.2555	699.0107	-0.0592	0.0182	-0.0073	-0.0462	0.0165	0.9585
42.4868	15.4836	152.2665	-5.4032	-59.925	11.4937	174.583	23.2656	702.1756	-58.7372	240.0835	49.7853	685.5984	-0.0592	0.0182	-0.0073	-0.0462	0.0165	0.9585
42.4999	10.3352	186.4801	-3.3331	-73.2731	6.8609	214.5188	23.8784	684.9484	-57.0839	233.9752	47.7776	667.8863	-0.0592	0.0182	-0.0073	-0.0462	0.0165	0.9585
42.5129	4.2737	214.8034	-0.031131	-84.2792	0.5187	247.8019	23.9677	663.2441	-54.7146	226.3648	45.3014	646.1131	-0.0592	0.0182	-0.0073	-0.0462	0.0165	0.9585
42.526	-1.6495	236.8403	3.8693	-92.8144	-6.3886	273.7735	23.7316	637.8904	-51.8864	217.5353	42.5404	621.0019	-0.0592	0.0182	-0.0073	-0.0462	0.0165	0.9585
42.5391	-6.8502	254.2365	7.9066	-99.5493	-13.0913	294.2045	23.4358	609.7971	-48.9128	207.7953	39.6962	593.3418	-0.0592	0.0182	-0.0073	-0.0462	0.0165	0.9585
42.5521	-11.1617	269.4511	11.6327	-105.4702	-19.015	311.8223	23.278	579.6293	-45.9658	197.3759	36.8595	563.7067	-0.0592	0.0182	-0.0073	-0.0462	0.0165	0.9585
42.5652	-14.6785	284.915	14.8388	-111.5305	-23.9514	329.3554	23.3733	547.6677	-43.0398	186.384	33.9857	532.3164	-0.0592	0.0182	-0.0073	-0.0462	0.0165	0.9585
42.5783	-17.4242	302.5339	17.438	-118.4647	-27.8268	348.8601	23.7185	513.8853	-40.0118	174.8213	30.9615	499.135	-0.0592	0.0182	-0.0073	-0.0462	0.0165	0.9585
42.5914	-19.4236	323.7377	19.6233	-126.7849	-30.8699	371.8977	24.1744	478.0234	-36.7653	162.602	27.722	463.9351	-0.0592	0.0182	-0.0073	-0.0462	0.0165	0.9585
42.6044	-20.6527	349.4556	21.7098	-136.7897	-33.4407	399.4728	24.5011	439.7043	-33.247	149.5915	24.2911	426.3884	-0.0592	0.0182	-0.0073	-0.0462	0.0165	0.9585
42.6175	-21.1128	379.9635	24.2183	-148.5128	-36.1182	431.8927	24.3904	398.6585	-29.4889	135.6807	20.7899	386.2937	-0.0592	0.0182	-0.0073	-0.0462	0.0165	0.9585
42.6306	-20.938	414.9163	27.5798	-161.7525	-39.4331	468.7788	23.5579	354.9124	-25.585	120.8603	17.3907	343.7087	-0.0592	0.0182	-0.0073	-0.0462	0.0165	0.9585
42.6436	-20.3076	453.6276	32.1018	-176.1938	-43.7914	509.3811	21.7447	308.9883	-21.6679	105.2926	14.2889	299.1638	-0.0592	0.0182	-0.0073	-0.0462	0.0165	0.9585
42.6567	-19.3925	495.392	37.7137	-191.5482	-49.1961	552.9686	18.8728	261.9943	-17.8841	89.3454	11.6403	253.7217	-0.0592	0.0182	-0.0073	-0.0462	0.0165	0.9585
42.6698	-18.2843	539.4856	44.1359	-207.5565	-55.3871	598.791	15.0823	215.5417	-14.3806	73.5629	9.5376	208.91	-0.0592	0.0182	-0.0073	-0.0462	0.0165	0.9585
42.6829	-17.0865	585.0267	50.9153	-223.9209	-61.9235	645.9478	10.7059	171.4784	-11.2716	58.5748	7.9804	166.467	-0.0592	0.0182	-0.0073	-0.0462	0.0165	0.9585
42.6959	-15.8904	630.6795	57.6437	-240.1888	-68.3982	693.0534	6.2385	131.5043	-8.6246	44.9621	6.8717	127.968	-0.0592	0.0182	-0.0073	-0.0462	0.0165	0.9585
42.709	-14.7856	674.6745	63.9191	-255.7517	-74.4174	738.2656	2.1567	96.8483	-6.4406	33.1459	6.0552	94.5641	-0.0592	0.0182	-0.0073	-0.0462	0.0165	0.9585
42.7221	-13.8478	715.0056	69.4238	-269.9153	-79.6694	779.4855	-1.1738	68.065	-4.6794	23.3235	5.3788	66.7628	-0.0592	0.0182	-0.0073	-0.0462	0.0165	0.9585
42.7351	-13.1033	749.7594	73.8698	-282.0198	-83.8674	814.6984	-3.5573	45.1578	-3.2751	15.4994	4.723	44.5816	-0.0592	0.0182	-0.0073	-0.0462	0.0165	0.9585
42.7482	-12.5379	777.3699	77.0758	-291.5276	-86.8163	842.264	-4.8915	27.6992	-2.1638	9.53	4.0046	27.6245	-0.0592	0.0182	-0.0073	-0.0462	0.0165	0.9585
42.7613	-12.0636	796.8047	78.9681	-298.0866	-88.4115	861.0917	-5.2233	15.0322	-1.2928	5.1948	3.1955	15.2837	-0.0592	0.0182	-0.0073	-0.0462	0.0165	0.9585
42.7744	-11.6133	807.6386	79.6396	-301.5571	-88.7225	870.7443	-4.7494	6.4307	-0.64764	2.2475	2.3516	6.8757	-0.0592	0.0182	-0.0073	-0.0462	0.0165	0.9585
42.7874	-11.113	810.126	79.2526	-302.0434	-87.9004	871.4972	-3.8284	1.1646	-0.21105	0.43843	1.5789	1.6926	-0.0592	0.0182	-0.0073	-0.0462	0.0165	0.9585
42.8005	-10.5051	805.2429	78.0093	-299.9125	-86.1469	864.3946	-2.8102	-1.5616	0.046342	-0.50415	0.96166	-1.0214	-0.0592	0.0182	-0.0073	-0.0462	0.0165	0.9585
42.8136	-9.7451	794.6181	76.0914	-295.7733	-83.6507	851.163	-1.8773	-2.5441	0.17164	-0.84884	0.51296	-2.0398	-0.0592	0.0182	-0.0073	-0.0462	0.0165	0.9585
42.8266	-8.8135	780.327	73.6932	-290.3974	-80.613	833.9809	-1.1221	-2.4332	0.20135	-0.81857	0.22564	-1.9794	-0.0592	0.0182	-0.0073	-0.0462	0.0165	0.9585
42.8397	-7.6975	764.592	71.03	-284.6037	-77.2446	815.1579	-0.56587	-1.7468	0.1764	-0.58919	0.063447	-1.3464	-0.0592	0.0182	-0.0073	-0.0462	0.0165	0.9585
42.8528	-6.3863	749.5029	68.3112	-279.1583	-73.7443	796.8532	-0.19572	-0.84442	0.12416	-0.28312	-0.0079374	-0.49319	-0.0592	0.0182	-0.0073	-0.0462	0.0165	0.9585
42.8659	-4.8838	736.8142	65.7247	-274.6976	-70.2928	780.8718	0.023818	0.072598	0.066526	0.030676	-0.025298	0.38733	-0.0592	0.0182	-0.0073	-0.0462	0.0165	0.9585
42.8789	-3.1828	727.8055	63.4271	-271.6774	-67.0334	768.5006	0.14116	0.87975	0.0093692	0.31115	-0.0099733	1.1662	-0.0592	0.0182	-0.0073	-0.0462	0.0165	0.9585
42.892	-1.2839	723.1905	61.5469	-270.3415	-64.0812	760.4462	0.16849	1.527	-0.03576	0.54148	0.023769	1.8013	-0.0592	0.0182	-0.0073	-0.0462	0.0165	0.9585
42.9051	0.81215	723.1077	60.1532	-270.7202	-61.498	756.8213	0.15129	2.0099	-0.072875	0.71773	0.068191	2.279	-0.0592	0.0182	-0.0073	-0.0462	0.0165	0.9585
42.9181	3.088	727.181	59.2667	-272.6522	-59.301	757.22	0.093855	2.3457	-0.099178	0.84331	0.11722	2.6166	-0.0592	0.0182	-0.0073	-0.0462	0.0165	0.9585
42.9312	5.5367	734.6334	58.8608	-275.8263	-57.4663	760.8352	0.0050803	2.5241	-0.127	0.91447	0.17833	2.7977	-0.0592	0.0182	-0.0073	-0.0462	0.0165	0.9585
42.9443	8.101	744.4031	58.8766	-279.827	-55.9576	766.6047	-0.10311	2.5464	-0.15671	0.92746	0.24815	2.8213	-0.0592	0.0182	-0.0073	-0.0462	0.0165	0.9585
42.9574	10.7094	755.3191	59.2303	-284.2009	-54.7264	773.3666	-0.23626	2.3789	-0.19904	0.86785	0.33734	2.6428	-0.0592	0.0182	-0.0073	-0.0462	0.0165	0.9585
42.9704	13.2722	766.2541	59.8251	-288.5156	-53.7205	780.0378	-0.39962	1.9465	-0.24976	0.70974	0.44523	2.1648	-0.0592	0.0182	-0.0073	-0.0462	0.0165	0.9585
42.9835	15.7193	776.2186	60.5492	-292.3956	-52.872	785.6994	-0.59458	1.1785	-0.31262	0.42607	0.57782	1.3087	-0.0592	0.0182	-0.0073	-0.0462	0.0165	0.9585
42.9966	18.0084	784.4204	61.2879	-295.5426	-52.1013	789.6456	-0.79399	-0.011736	-0.38051	-0.014466	0.71996	-0.031245	-0.0592	0.0182	-0.0073	-0.0462	0.0165	0.9585
43.0096	20.1452	790.2424	61.9577	-297.7262	-51.3421	791.3415	-0.9771	-1.6802	-0.44432	-0.6323	0.85172	-1.9204	-0.0592	0.0182	-0.0073	-0.0462	0.0165	0.9585
43.0227	22.1769	793.2249	62.4835	-298.7793	-50.5218	790.3954	-1.0675	-3.8084	-0.48535	-1.4196	0.92565	-4.3533	-0.0592	0.0182	-0.0073	-0.0462	0.0165	0.9585
43.0358	24.1673	793.0731	62.8158	-298.5921	-49.5847	786.5626	-0.96637	-6.2499	-0.48745	-2.3205	0.88537	-7.1698	-0.0592	0.0182	-0.0073	-0.0462	0.0165	0.9585
43.0489	26.2064	789.6135	62.9262	-297.0949	-48.4831	779.6877	-0.54942	-8.6615	-0.41108	-3.2046	0.64132	-9.9789	-0.0592	0.0182	-0.0073	-0.0462	0.0165	0.9585
43.0619	28.3609	782.791	62.8371	-294.2557	-47.2147	769.7369	0.34979	-10.3942	-0.2184	-3.8308	0.089951	-12.0356	-0.0592	0.0182	-0.0073	-0.0462	0.0165	0.9585
43.075	30.6796	772.7558	62.585	-290.114	-45.7942	756.8789	1.9002	-10.4079	0.14262	-3.8146	-0.88955	-12.1376	-0.0592	0.0182	-0.0073	-0.0462	0.0165	0.9585
43.0881	33.1585	759.9054	62.232	-284.8005	-44.2764	741.531	4.2545	-7.2477	0.71835	-2.6164	-2.4018	-8.6088	-0.0592	0.0182	-0.0073	-0.0462	0.0165	0.9585
43.1011	35.7752	744.8062	61.8123	-278.5181	-42.6989	724.2833	7.4793	0.99924	1.5486	0.46911	-4.5082	0.75704	-0.0592	0.0182	-0.0073	-0.0462	0.0165	0.9585
43.1142	38.4562	728.0226	61.3167	-271.4858	-41.0776	705.7454	11.4926	16.5556	2.6262	6.2574	-7.1569	18.5211	-0.0592	0.0182	-0.0073	-0.0462	0.0165	0.9585
43.1273	41.0641	709.907	60.6455	-263.8593	-39.3725	686.3427	15.9124	41.6183	3.8881	15.5511	-10.1208	47.228	-0.0592	0.0182	-0.0073	-0.0462	0.0165	0.9585
43.1404	43.4023	690.3652	59.6324	-255.6467	-37.4982	666.0572	19.9361	77.7875	5.1544	28.924	-12.8878	88.7565	-0.0592	0.0182	-0.0073	-0.0462	0.0165	0.9585
43.1534	45.225	668.7964	58.0578	-246.6815	-35.3353	644.3697	22.1954	125.1408	6.0955	46.3797	-14.5695	143.2563	-0.0592	0.0182	-0.0073	-0.0462	0.0165	0.9585
43.1665	46.2784	644.1703	55.7213	-236.65	-32.7881	620.3073	20.931	181.21	6.1677	66.9673	-13.9148	208.0073	-0.0592	0.0182	-0.0073	-0.0462	0.0165	0.9585
